<?xml version="1.0" standalone="no"?>
<!DOCTYPE svg PUBLIC "-//W3C//DTD SVG 20010904//EN"
 "http://www.w3.org/TR/2001/REC-SVG-20010904/DTD/svg10.dtd">
<svg version="1.0" xmlns="http://www.w3.org/2000/svg"
 width="1024.000000pt" height="1024.000000pt" viewBox="0 0 1024.000000 1024.000000"
 preserveAspectRatio="xMidYMid meet">

<g transform="translate(0.000000,1024.000000) scale(0.100000,-0.100000)"
fill="#000000" stroke="none">
<path d="M5065 9243 c-96 -9 -287 -44 -370 -68 -234 -68 -432 -184 -605 -356
l-79 -78 -73 15 c-101 22 -343 14 -449 -14 -99 -26 -188 -64 -263 -112 -51
-33 -58 -40 -41 -46 45 -15 146 -64 181 -88 l37 -25 -44 -17 c-206 -81 -430
-251 -610 -462 -79 -93 -199 -259 -199 -276 0 -3 48 -6 106 -6 58 0 104 -3
102 -7 -2 -5 -31 -62 -64 -128 -152 -297 -213 -549 -214 -870 0 -262 35 -498
116 -786 3 -9 -5 -20 -18 -26 -50 -23 -139 -106 -182 -172 -110 -165 -150
-381 -111 -602 60 -342 311 -681 563 -759 35 -11 77 -20 93 -20 16 0 31 -6 33
-12 2 -7 16 -58 31 -112 80 -291 244 -566 480 -801 104 -104 227 -207 323
-270 l42 -28 0 -91 0 -91 -143 -54 c-412 -156 -905 -380 -1154 -524 -201 -117
-436 -281 -501 -350 l-23 -24 94 -89 c325 -311 779 -604 1244 -803 905 -387
1884 -468 2839 -236 660 160 1380 538 1865 978 135 123 166 156 153 165 -6 4
-48 37 -95 73 -188 148 -475 321 -759 457 -239 114 -797 349 -962 405 -15 5
-18 20 -18 95 l0 88 84 58 c222 151 439 382 581 620 69 115 152 317 185 447
l24 96 63 10 c138 24 278 117 393 260 105 131 178 274 222 434 20 72 23 107
23 249 -1 151 -3 172 -28 245 -43 129 -139 270 -222 326 -26 17 -35 30 -31 44
2 11 23 92 45 180 147 571 112 1048 -108 1495 -34 68 -61 125 -61 127 0 1 61
3 135 3 74 0 135 2 135 5 0 12 -107 165 -175 250 -189 236 -436 441 -759 626
-130 74 -240 123 -395 174 -89 30 -110 41 -98 49 101 72 167 122 167 127 0 8
-224 77 -310 95 -304 62 -719 70 -1032 20 -46 -8 -85 -12 -86 -11 -5 5 24 144
37 178 10 27 10 27 -32 25 -23 -1 -60 -3 -82 -5z m385 -1562 l154 -6 -54 -46
c-30 -26 -81 -63 -114 -82 l-59 -35 39 -11 c93 -25 191 -34 364 -34 212 0 353
18 488 63 l87 28 65 -36 c315 -173 473 -373 565 -713 49 -180 99 -501 121
-768 6 -79 5 -84 -12 -77 -44 17 -229 58 -359 78 -125 21 -176 23 -465 23
-227 0 -348 -4 -400 -13 -221 -40 -344 -89 -438 -177 -59 -54 -60 -55 -93 -42
-49 17 -381 17 -433 -2 l-38 -13 -47 45 c-148 145 -338 196 -768 204 -367 8
-641 -21 -885 -93 -15 -5 -18 2 -18 41 0 57 26 305 46 445 50 346 155 637 287
800 99 122 268 244 419 304 140 55 382 100 623 115 154 10 705 11 925 2z
m-1160 -1816 c181 -24 283 -65 344 -137 62 -72 76 -151 55 -305 -46 -336 -172
-505 -419 -559 -54 -12 -125 -17 -255 -17 -203 -1 -297 14 -403 63 -166 77
-269 278 -304 589 -27 248 38 321 327 365 124 19 518 20 655 1z m2320 0 c288
-43 349 -111 322 -356 -28 -246 -91 -410 -201 -520 -54 -53 -79 -70 -136 -91
-109 -40 -204 -53 -380 -52 -309 0 -446 54 -553 214 -73 109 -128 330 -120
485 11 204 134 288 483 329 92 10 498 5 585 -9z m-3802 -130 c20 -9 47 -26 60
-38 51 -47 51 -49 45 -418 -5 -317 0 -461 24 -689 l6 -61 -52 20 c-155 58
-327 284 -391 511 -30 104 -37 282 -16 373 28 118 82 205 168 270 60 46 101
54 156 32z m4728 0 c194 -81 285 -365 210 -657 -44 -173 -159 -363 -279 -461
-42 -35 -154 -94 -161 -86 -2 2 0 33 5 69 24 192 32 513 20 765 -12 254 -12
256 9 290 24 39 67 73 108 85 40 12 49 12 88 -5z m-2262 -126 c31 -11 58 -24
61 -29 3 -5 12 -62 20 -127 31 -248 70 -377 154 -505 86 -132 208 -218 369
-259 195 -50 525 -47 709 7 128 37 197 77 284 165 125 124 199 301 237 563
l17 121 8 -215 c23 -611 -53 -1073 -230 -1410 -191 -363 -589 -678 -1073 -848
-228 -79 -435 -112 -720 -112 -368 0 -636 63 -965 225 -541 266 -848 642 -969
1186 -53 241 -58 299 -63 724 -6 459 -3 515 15 364 54 -450 227 -691 552 -769
128 -30 328 -43 473 -31 226 19 361 69 472 173 146 136 213 297 255 608 10 78
21 144 24 147 3 3 29 14 58 24 78 27 239 26 312 -2z m948 -3271 l26 -34 -28
-52 c-66 -121 -188 -251 -320 -339 -247 -166 -525 -242 -840 -230 -258 10
-440 61 -645 182 -158 93 -299 231 -388 379 l-36 59 24 29 c14 16 29 46 35 66
5 21 10 160 9 316 0 153 2 280 3 282 2 1 48 -17 103 -42 209 -92 459 -159 687
-183 54 -6 172 -11 263 -11 91 0 209 5 263 11 230 25 508 100 712 192 l95 43
5 -316 5 -317 27 -35z m-2372 231 l0 -151 -29 -29 c-49 -49 -116 -31 -142 38
-14 37 -12 210 4 220 17 11 150 72 160 72 4 1 7 -67 7 -150z m2612 116 c29
-14 59 -25 67 -25 36 0 51 -31 51 -102 0 -38 -5 -89 -11 -114 -19 -76 -88
-107 -140 -65 -20 16 -25 32 -30 102 -11 122 -10 229 0 229 5 0 33 -11 63 -25z
m-2568 -406 c14 -11 26 -26 26 -33 0 -17 90 -144 124 -175 48 -45 25 -139 -39
-155 -50 -13 -87 16 -168 127 -43 58 -80 119 -83 136 -18 86 74 152 140 100z
m2546 6 c60 -31 67 -95 19 -171 -57 -90 -132 -176 -165 -190 -62 -26 -124 20
-124 93 0 19 14 46 41 78 23 28 61 80 85 117 58 90 85 104 144 73z m-2195
-405 c28 -21 75 -54 105 -73 65 -41 76 -52 85 -90 16 -62 -44 -125 -106 -112
-16 4 -77 38 -135 76 -82 54 -108 77 -120 105 -18 43 -11 84 19 111 46 42 79
39 152 -17z m1887 29 c11 -6 26 -26 34 -46 25 -59 6 -94 -89 -164 -101 -76
-131 -91 -176 -91 -51 0 -96 50 -88 99 7 44 20 58 82 98 28 18 72 51 100 74
52 43 95 53 137 30z m-1398 -273 c43 -14 87 -33 97 -42 27 -25 34 -76 15 -112
-32 -61 -67 -65 -207 -22 -117 37 -148 59 -156 116 -4 33 -1 45 21 71 15 18
37 33 49 35 22 4 38 0 181 -46z m1003 20 c23 -20 28 -32 28 -71 0 -38 -5 -51
-26 -69 -32 -27 -209 -88 -262 -90 -71 -2 -108 73 -72 143 15 29 33 39 125 66
30 8 69 22 85 29 47 22 90 19 122 -8z m-451 -97 c31 -29 38 -69 21 -111 -22
-51 -53 -60 -202 -56 -125 3 -127 3 -151 31 -26 30 -32 83 -14 117 21 39 55
47 193 43 117 -2 133 -5 153 -24z"/>
<path d="M3955 6504 c-114 -11 -204 -28 -252 -46 -77 -29 -155 -104 -197 -191
-19 -39 -33 -74 -31 -77 2 -4 32 -3 67 1 122 14 456 31 770 37 l317 7 -18 53
c-34 100 -110 166 -226 197 -59 16 -338 28 -430 19z"/>
<path d="M5934 6500 c-131 -18 -209 -52 -258 -111 -31 -37 -60 -92 -70 -131
l-6 -28 167 0 c223 0 674 -18 846 -33 100 -9 137 -10 137 -1 0 6 -14 39 -31
72 -58 117 -153 187 -294 217 -83 18 -403 28 -491 15z"/>
<path d="M3992 5746 c-60 -20 -106 -58 -131 -109 -18 -37 -21 -62 -21 -171 0
-120 2 -131 27 -177 71 -131 242 -157 347 -52 52 51 66 96 66 218 0 130 -10
173 -52 221 -59 67 -155 96 -236 70z"/>
<path d="M6108 5744 c-51 -16 -107 -64 -135 -117 -22 -42 -31 -229 -13 -292
32 -116 161 -187 278 -154 60 17 132 87 150 145 17 57 16 256 -2 297 -19 47
-98 113 -151 126 -55 14 -68 13 -127 -5z"/>
<path d="M4864 4766 c-60 -26 -83 -95 -48 -144 68 -97 396 -123 552 -43 50 25
63 42 69 89 4 31 0 44 -21 69 -36 42 -61 46 -151 23 -99 -25 -191 -25 -290 0
-43 11 -79 20 -79 20 -1 -1 -15 -7 -32 -14z"/>
<path d="M4295 4311 c-34 -15 -56 -48 -62 -91 -5 -39 -3 -43 43 -88 95 -92
301 -177 497 -207 404 -59 847 -4 1093 136 140 81 177 151 115 221 -44 49 -88
45 -169 -14 -155 -115 -462 -179 -782 -164 -293 14 -465 61 -607 167 -56 42
-95 54 -128 40z"/>
</g>
</svg>
